<svg width="14.553cm" height="18.5cm" version="1.1" viewBox="0 0 515.67 655.51" xmlns="http://www.w3.org/2000/svg">
 <g class="districts" fill="none" stroke="#000" stroke-linejoin="round" stroke-width=".65375">
  <path id="alt" d="m195.44 257.9-1.373-37.759 40.161-93.71-1.373-8.2382-17.506-4.8056-12.014 4.8056-17.85 31.923-9.9546-7.5517 9.9546-25.058-17.163-10.984-8.2382 10.984 1.0298 18.193-8.2383 2.7461-8.2382-39.475-46.683-5.4922-12.701 45.31h-13.044l-9.6113 16.133-26.088 10.298-6.8652-8.5815-20.252 8.2383 17.506 34.326 45.654 20.939 7.2085-4.1191 3.4326 20.252-16.133 9.268 1.7163 20.596-19.223 13.044 17.163 27.461z"/>
  <path id="nrz" d="m96.926 296-30.207 10.641-19.566 4.8056 1.373 24.371 10.984 31.237 13.044 6.1787 2.4028 39.132-20.596 11.328 5.1489 11.328 19.566 0.34326 1.7163 27.118 9.268 16.133 31.237 5.8354 4.1191 8.9248 49.773-21.625-3.4326-13.387 19.566-29.177-22.998-29.177 8.2382-1.0298-14.417-29.864-29.52-7.5517z"/>
  <path id="auz" d="m162.15 369.12 9.9545-7.895-4.8056-8.5815 20.939-4.4624 1.7163-24.715-19.566-20.596-5.4922-33.64-67.966 26.774 35.699 65.563z"/>
  <path id="bst" d="m170.38 302.87 10.641-9.268 87.188-7.2085 2.7461 27.118-30.55 20.252 47.37 13.044 0.68652 35.699-13.73 13.044 24.715 36.729-21.282 19.909 5.8354 31.237-58.354 9.268 100.92 67.279-17.85 58.698-11.671-7.2085-25.745 25.745-14.074-12.014 28.147-32.61-15.79-28.147-57.324-10.298-14.76-46.683-72.085-14.074 49.773-21.625-3.4326-13.387 19.566-29.177-22.998-29.177 8.2382-1.0298-14.417-29.864 9.9545-7.895-4.8056-8.5815 20.939-4.4624 1.7163-24.715z"/>
  <path id="mds" d="m308.72 618.67 65.063 32.245 34.347-6.1824 35.034-59.764-15.113-83.806 36.408 15.113 6.8694-17.173-63.198-48.086-2.7477-23.356 15.113-10.304 16.486 15.113 6.8694-5.4955 30.912 24.043 38.468-52.894-9.6171-38.468-30.225-12.365-8.9302 9.6171 8.9302 32.973-10.304 10.304-38.468-18.547-20.608-57.703-30.912-41.216-25.417-24.043-2.0608-58.39 37.095-27.477-19.875-14.418-30.704 37.789-31.491 5.5109-7.8728 34.64-29.916 5.5109 8.1074 71.672-30.55 20.252 47.37 13.044 0.68652 35.699-13.73 13.044 24.715 36.729-21.282 19.909 5.8354 31.237-58.354 9.268 100.92 67.279z"/>
  <path id="zht" d="m300.64 201.68-46.552 1.7244-7.4762-12.652 2.8755-77.063 26.454-32.205 6.326-14.952-16.678-13.227-18.978 28.755-10.352-2.3004-20.91 33.623 17.506 4.8056 1.373 8.2382-40.161 93.71 1.373 37.759 42.544-16.534 24.865 0.4704 29.916-5.5109z"/>
  <path id="alm" d="m268.21 286.39-5.3614-44.554-24.865-0.4704-73.095 27.862 5.4922 33.64 10.641-9.268z"/>
  <path id="trk" d="m362.84 158.38 20.075-29.738-13.802-12.652 62.11-44.282 1.1502-11.502-22.429 3.4506-32.78 26.454-17.253-7.4762-9.7766 5.1759 3.4506-48.308-37.956-25.879-33.356 52.909-6.326 14.952-26.454 32.205-2.8755 77.063 7.4762 12.652 46.552-1.7244 31.491-5.5109z"/>
 </g>
</svg>
