
<svg  xmlns="http://www.w3.org/2000/svg" xmlns:xlink="http://www.w3.org/1999/xlink" viewBox="0 0 700 400">
  <style>
    .city{
    fill:red;
    }
  </style>
 <g fill="none" opacity=".99605" stroke="#000" stroke-linejoin="round" stroke-width="1.8898">
  <path id="vko-obl" class="region" d="m495.98 117.38-6.1065 8.142 2.0355 65.814 77.349-2.0355 19.676 26.461 2.714-42.067 42.067 0.6785-6.1065-36.639 15.605-10.177 4.7495-17.641-12.213-10.177-5.428 6.785-17.641 1.357-6.1065-8.8205-9.499 1.357-12.891-21.712-31.889 14.248-12.891-10.177-10.177 13.57-18.319-23.069-14.248 20.355 13.57 13.57-4.071 10.856z" opacity=".99357" stroke-linecap="round" style="paint-order:markers fill stroke"/>
  <path id="alm-obl" class="region" d="m567.22 300.57-21.712-8.142-62.422 6.785-12.891-31.889-13.57-4.7495-13.57-32.568 18.998-22.39 40.031-1.357-1.357-14.927 68.528-2.0355 19.676 26.461 10.856 1.357-3.3925 10.177-18.319-5.428-21.712 13.57 19.676 44.102z" opacity=".99357" stroke-linecap="round" style="paint-order:markers fill stroke"/>
  <path id="pavl-obl" class="region" d="m510.91 73.278-25.783-33.925-18.998-10.177 4.7495-13.57-50.209 30.532 10.856 23.069-2.714 27.14 24.426 29.175 23.747-10.856 3.3925-9.499 15.605 12.213 10.177 0.6785 4.071-10.856-13.57-13.57z" stroke-linecap="round" style="paint-order:markers fill stroke"/>
  <path id="zhambyl-obl" class="region" d="m443.06 230.01 13.57 32.568 13.57 4.7495 12.891 31.889h-15.605l-9.499-8.142-10.177 6.1065-1.357 16.284-23.747-8.8205-19.676 2.714-2.0355 12.891-28.497-27.14 6.1065-29.175-12.891-32.568z" opacity=".99357" stroke-linecap="round" style="paint-order:markers fill stroke"/>
  <path id="sevkaz-obl" class="region" d="m420.67 46.138 7.4635-16.284-25.783-5.428-8.8205 6.1065-9.499-27.818-25.104-2.0355-40.031 20.355-3.3925 51.566 23.747 1.357 14.248-12.213-4.7495-14.927 19.676-5.428 8.8205 11.534 50.209 10.177z" opacity=".99357" stroke-linecap="round" style="paint-order:markers fill stroke"/>
  <path id="kost-obl" class="region" d="m315.5 72.599 3.3925-51.566h-14.927v8.142l-14.927-1.357-43.424 2.0355-1.357 19.676 14.248 4.7495-0.6785 4.071h-15.605l-15.605 23.747 31.889 24.426 7.4635 25.783-12.213 18.319 29.854 25.104 12.213-16.284 16.962 4.7495 33.925-43.424-39.353-14.927z" opacity=".99357" stroke-linecap="round" style="paint-order:markers fill stroke"/>
  <path id="karaganda-obl" class="region" d="m365.71 231.37-31.889 2.0355-27.818-3.3925-44.781-27.818 23.747-16.284-1.357-10.177 12.213-16.284 16.962 4.7495 33.925-43.424 37.317 5.428 44.781-29.854 24.426 29.175 23.747-10.856 3.3925-9.499 15.605 12.213-6.1065 8.142 2.0355 65.814h8.8205l1.357 14.927-40.031 1.357-18.998 22.39z" opacity=".99357" stroke-linecap="round" style="paint-order:markers fill stroke"/>
  <path id="zko-obl" class="region" d="m136.38 97.704-28.497-29.854-19.676-2.714-39.353 18.998-0.6785 15.605-9.499 1.357-8.142-17.641-28.497 42.745 8.8205 9.499 24.426 4.071 9.499 8.8205 41.388-12.213 8.8205 10.856 26.461-13.57 19.676-14.927z" opacity=".99357" stroke-linecap="round" style="paint-order:markers fill stroke"/>
  <path id="atyrau-obl" class="region" d="m10.856 135.7-2.0355 13.57 18.319 4.7495-3.3925 23.747 8.142 9.499 38.674-10.856 12.891 12.213 8.8205-4.7495 6.785 23.747 33.246-2.714 18.998 14.248-1.357-13.57-18.319-19.676 4.7495-37.317-14.927-14.927-26.461 13.57-8.8205-10.856-41.388 12.213-9.499-8.8205z" opacity=".99357" stroke-linecap="round" style="paint-order:markers fill stroke"/>
  <path id="kyzylorda-obl" class="region" d="m186.59 232.72 29.854-33.925 12.891-0.67849 6.785-14.927h10.856l14.248 18.998 44.781 27.818 27.818 3.3925 6.1065 39.353 8.142 6.1065-5.428 18.319-31.211 23.069-21.033-34.603h-29.854l-21.033 4.7495-16.284-24.426z" opacity=".99357" stroke-linecap="round" style="paint-order:markers fill stroke"/>
  <path id="aktobe-obl" class="region" d="m186.59 232.72-33.925 6.785-1.357-20.355-1.357-13.57-18.319-19.676 4.7495-37.317-14.927-14.927 19.676-14.927-4.7495-21.033 7.4635-6.785 9.499 14.927 18.319-11.534 28.497 4.7495 16.284 18.319 31.852-18.445 10.214 7.589 7.4635 25.783-12.213 18.319 29.854 25.104 1.357 10.177-23.747 16.284-14.248-18.998h-10.856l-6.785 14.927-12.891 0.67849z" opacity=".99357" stroke-linecap="round" style="paint-order:markers fill stroke"/>
  <path id="mangystau-obl" class="region" d="m99.061 207.62-6.4574 6.7392 5.1446 12.576-31.439-10.861-11.432 10.861 5.7162 9.7176-19.435-8.0027-2.2865 9.7176 32.011 48.016-8.0027 13.147 5.1446 9.146 12.004-8.0027 29.724 9.7176 6.8595 17.149 12.004 1.1432 10.289-86.315 13.757-2.8594-1.357-20.355-18.998-14.248z" opacity=".99357" stroke-linecap="round" style="paint-order:markers fill stroke"/>
  <path id="yko-obl" class="region" d="m311.43 320.25-1.0379 8.4336 10.289-0.57162 3.4298 20.578 20.007-2.2865 13.719 14.291 43.155-40.445-28.497-27.14 6.1065-29.175-12.891-32.568-31.889 2.0355 6.1065 39.353 8.142 6.1065-5.428 18.319z" opacity=".99357" stroke-linecap="round" style="paint-order:markers fill stroke"/>
  <path id="akm-obl" class="region" d="m339.25 73.956-23.747-1.357-8.142 33.246 39.353 14.927 37.317 5.428 44.781-29.854 2.714-27.14-4.071-6.1065-50.209-10.177-8.8205-11.534-19.676 5.428 4.7495 14.927z" opacity=".99357"/>
 </g>
 <g>
  <path id="astana" class="city" d="m400.72 105.83-3.6272 0.1155-1.9612 3.0535-1.2307-3.414-3.5101-0.92163 2.8666-2.2255-0.20817-3.6231 3.0024 2.0386 3.3814-1.3176-1.011 3.4854z" style=""/>
  <path id="almaty" class="city" d="m512.44 286.75-5.642 0.10504-3.112 4.7073-1.8434-5.3334-5.4386-1.5051 4.5027-3.4013-0.24921-5.6375 4.6262 3.2313 5.2845-1.9791-1.6436 5.3983z" style="paint-order:markers fill stroke"/>
  <circle id="aktobe" class="city" cx="178.47" cy="118.3" r="3.1974" style="paint-order:markers fill stroke"/>
  <circle id="kosta" class="city" cx="279.62" cy="55.518" r="2.9067" style="paint-order:markers fill stroke"/>
  <circle id="uralsk" class="city" cx="92.869" cy="78.626" r="2.7614" style="paint-order:markers fill stroke"/>
  <circle id="atyrau" class="city" cx="84.003" cy="177.31" r="2.9067" style="paint-order:markers fill stroke"/>
  <circle id="aktau" class="city" cx="61.622" cy="256.37" r="3.1974" style="paint-order:markers fill stroke"/>
  <circle id="kyzylorda" class="city" cx="307.82" cy="256.37" r="2.9067" style="paint-order:markers fill stroke"/>
  <circle id="shymkent" class="city" cx="379.47" cy="323.08" r="5.668" style="paint-order:markers fill stroke"/>
  <circle id="taraz" class="city" cx="407.37" cy="300.41" r="2.4707" style="paint-order:markers fill stroke"/>
  <circle id="oskemen" class="city" cx="573.49" cy="110.45" r="3.488" style="paint-order:markers fill stroke"/>
  <circle id="pavlodar" class="city" cx="478.59" cy="69.034" r="3.052" style="paint-order:markers fill stroke"/>
  <circle id="karaganda" class="city" cx="426.56" cy="130.07" r="3.3427" style="paint-order:markers fill stroke"/>
  <circle id="petropavl" class="city" cx="359.99" cy="15.26" r="2.4707" style="paint-order:markers fill stroke"/>
 </g>
</svg>
