<?xml version="1.0" encoding="UTF-8" standalone="no"?>
<!DOCTYPE svg PUBLIC "-//W3C//DTD SVG 1.1//EN"
 "http://www.w3.org/Graphics/SVG/1.1/DTD/svg11.dtd">
<!-- Generated by graphviz version 2.40.1 (20161225.0304)
 -->
<!-- Title: G Pages: 1 -->
<svg width="720pt" height="197pt"
 viewBox="0.00 0.00 720.00 197.11" xmlns="http://www.w3.org/2000/svg" xmlns:xlink="http://www.w3.org/1999/xlink">
<g id="graph0" class="graph" transform="scale(.2965 .2965) rotate(0) translate(4 660.8)">
<title>G</title>
<polygon fill="#ffffff" stroke="transparent" points="-4,4 -4,-660.8 2424.3306,-660.8 2424.3306,4 -4,4"/>
<!-- 1 -->
<g id="node1" class="node">
<title>1</title>
<path fill="#ffa500" stroke="#ffa500" d="M350.7665,-653.4019C350.7665,-653.4019 230.7665,-653.4019 230.7665,-653.4019 224.7665,-653.4019 218.7665,-647.4019 218.7665,-641.4019 218.7665,-641.4019 218.7665,-624.1981 218.7665,-624.1981 218.7665,-618.1981 224.7665,-612.1981 230.7665,-612.1981 230.7665,-612.1981 350.7665,-612.1981 350.7665,-612.1981 356.7665,-612.1981 362.7665,-618.1981 362.7665,-624.1981 362.7665,-624.1981 362.7665,-641.4019 362.7665,-641.4019 362.7665,-647.4019 356.7665,-653.4019 350.7665,-653.4019"/>
<text text-anchor="middle" x="290.7665" y="-637" font-family="Roboto" font-size="14.00" fill="#ffffff">Pez Snapshot </text>
<text text-anchor="middle" x="290.7665" y="-620.2" font-family="Roboto" font-size="14.00" fill="#ffffff">Dremel &#45; Landing</text>
</g>
<!-- 21 -->
<g id="node12" class="node">
<title>21</title>
<polygon fill="#b03060" stroke="#b03060" points="581.533,-503.8 437.533,-503.8 437.533,-467.8 581.533,-467.8 581.533,-503.8"/>
<text text-anchor="middle" x="509.533" y="-481.6" font-family="Roboto" font-size="14.00" fill="#ffffff">HCM DQ Landing</text>
</g>
<!-- 1&#45;&gt;21 -->
<g id="edge7" class="edge">
<title>1&#45;&gt;21</title>
<path fill="none" stroke="#ff0000" stroke-dasharray="5,2" d="M348.0821,-611.9937C360.142,-606.7187 372.5337,-600.5938 383.533,-593.8 422.0192,-570.0287 460.6924,-534.7915 484.8466,-511.0943"/>
<polygon fill="#ff0000" stroke="#ff0000" points="487.5283,-513.3639 492.16,-503.8351 482.597,-508.3958 487.5283,-513.3639"/>
</g>
<!-- 1.1 -->
<g id="node2" class="node">
<title>1.1</title>
<path fill="#ffa500" stroke="#ffa500" d="M371.3001,-575.8C371.3001,-575.8 210.2329,-575.8 210.2329,-575.8 204.2329,-575.8 198.2329,-569.8 198.2329,-563.8 198.2329,-563.8 198.2329,-551.8 198.2329,-551.8 198.2329,-545.8 204.2329,-539.8 210.2329,-539.8 210.2329,-539.8 371.3001,-539.8 371.3001,-539.8 377.3001,-539.8 383.3001,-545.8 383.3001,-551.8 383.3001,-551.8 383.3001,-563.8 383.3001,-563.8 383.3001,-569.8 377.3001,-575.8 371.3001,-575.8"/>
<text text-anchor="middle" x="290.7665" y="-553.6" font-family="Roboto" font-size="14.00" fill="#ffffff">PezCloudSQLtoBQ &#45; Landing</text>
</g>
<!-- 1.1&#45;&gt;21 -->
<g id="edge8" class="edge">
<title>1.1&#45;&gt;21</title>
<path fill="none" stroke="#ff0000" stroke-dasharray="5,2" d="M345.6881,-539.7243C375.8549,-529.7959 413.4413,-517.4255 445.0023,-507.0382"/>
<polygon fill="#ff0000" stroke="#ff0000" points="446.1842,-510.334 454.5888,-503.8831 443.9958,-503.6849 446.1842,-510.334"/>
</g>
<!-- 2 -->
<g id="node3" class="node">
<title>2</title>
<path fill="#ffa500" stroke="#ffa500" d="M350.7665,-503.8C350.7665,-503.8 230.7665,-503.8 230.7665,-503.8 224.7665,-503.8 218.7665,-497.8 218.7665,-491.8 218.7665,-491.8 218.7665,-479.8 218.7665,-479.8 218.7665,-473.8 224.7665,-467.8 230.7665,-467.8 230.7665,-467.8 350.7665,-467.8 350.7665,-467.8 356.7665,-467.8 362.7665,-473.8 362.7665,-479.8 362.7665,-479.8 362.7665,-491.8 362.7665,-491.8 362.7665,-497.8 356.7665,-503.8 350.7665,-503.8"/>
<text text-anchor="middle" x="290.7665" y="-481.6" font-family="Roboto" font-size="14.00" fill="#ffffff">HRtoBQ_Landing</text>
</g>
<!-- 2&#45;&gt;21 -->
<g id="edge9" class="edge">
<title>2&#45;&gt;21</title>
<path fill="none" stroke="#ff0000" stroke-dasharray="5,2" d="M363.0051,-485.8C383.5405,-485.8 406.0578,-485.8 427.147,-485.8"/>
<polygon fill="#ff0000" stroke="#ff0000" points="427.3703,-489.3001 437.3702,-485.8 427.3702,-482.3001 427.3703,-489.3001"/>
</g>
<!-- 3 -->
<g id="node4" class="node">
<title>3</title>
<path fill="#ffa500" stroke="#ffa500" d="M132,-431.4019C132,-431.4019 12,-431.4019 12,-431.4019 6,-431.4019 0,-425.4019 0,-419.4019 0,-419.4019 0,-402.1981 0,-402.1981 0,-396.1981 6,-390.1981 12,-390.1981 12,-390.1981 132,-390.1981 132,-390.1981 138,-390.1981 144,-396.1981 144,-402.1981 144,-402.1981 144,-419.4019 144,-419.4019 144,-425.4019 138,-431.4019 132,-431.4019"/>
<text text-anchor="middle" x="72" y="-415" font-family="Roboto" font-size="14.00" fill="#ffffff">TG User and Product </text>
<text text-anchor="middle" x="72" y="-398.2" font-family="Roboto" font-size="14.00" fill="#ffffff">Data Extraction</text>
</g>
<!-- 4 -->
<g id="node5" class="node">
<title>4</title>
<path fill="#ffa500" stroke="#ffa500" d="M350.7665,-431.4019C350.7665,-431.4019 230.7665,-431.4019 230.7665,-431.4019 224.7665,-431.4019 218.7665,-425.4019 218.7665,-419.4019 218.7665,-419.4019 218.7665,-402.1981 218.7665,-402.1981 218.7665,-396.1981 224.7665,-390.1981 230.7665,-390.1981 230.7665,-390.1981 350.7665,-390.1981 350.7665,-390.1981 356.7665,-390.1981 362.7665,-396.1981 362.7665,-402.1981 362.7665,-402.1981 362.7665,-419.4019 362.7665,-419.4019 362.7665,-425.4019 356.7665,-431.4019 350.7665,-431.4019"/>
<text text-anchor="middle" x="290.7665" y="-415" font-family="Roboto" font-size="14.00" fill="#ffffff">Unnest source </text>
<text text-anchor="middle" x="290.7665" y="-398.2" font-family="Roboto" font-size="14.00" fill="#ffffff">Team graph tables</text>
</g>
<!-- 3&#45;&gt;4 -->
<g id="edge6" class="edge">
<title>3&#45;&gt;4</title>
<path fill="none" stroke="#ff0000" stroke-dasharray="5,2" d="M144.2386,-410.8C164.774,-410.8 187.2913,-410.8 208.3805,-410.8"/>
<polygon fill="#ff0000" stroke="#ff0000" points="208.6038,-414.3001 218.6037,-410.8 208.6037,-407.3001 208.6038,-414.3001"/>
</g>
<!-- 4&#45;&gt;21 -->
<g id="edge10" class="edge">
<title>4&#45;&gt;21</title>
<path fill="none" stroke="#ff0000" stroke-dasharray="5,2" d="M351.1245,-431.4926C381.0242,-441.7432 417.086,-454.1063 447.2443,-464.4455"/>
<polygon fill="#ff0000" stroke="#ff0000" points="446.2186,-467.7938 456.8132,-467.726 448.4888,-461.1721 446.2186,-467.7938"/>
</g>
<!-- 1.3 -->
<g id="node6" class="node">
<title>1.3</title>
<polygon fill="#ffa500" stroke="#ffa500" stroke-dasharray="5,2" points="362.7665,-353.4019 218.7665,-353.4019 218.7665,-312.1981 362.7665,-312.1981 362.7665,-353.4019"/>
<text text-anchor="middle" x="290.7665" y="-337" font-family="Roboto" font-size="14.00" fill="#ffffff">SRT Source </text>
<text text-anchor="middle" x="290.7665" y="-320.2" font-family="Roboto" font-size="14.00" fill="#ffffff">Data Extraction</text>
</g>
<!-- 1.3&#45;&gt;21 -->
<g id="edge11" class="edge">
<title>1.3&#45;&gt;21</title>
<path fill="none" stroke="#ff0000" stroke-dasharray="5,2" d="M348.7104,-353.5986C360.6065,-358.8399 372.7731,-364.9531 383.533,-371.8 423.2294,-397.0602 462.3719,-435.0971 486.2412,-460.1842"/>
<polygon fill="#ff0000" stroke="#ff0000" points="483.7429,-462.6366 493.1422,-467.5256 488.8432,-457.8421 483.7429,-462.6366"/>
</g>
<!-- 11 -->
<g id="node7" class="node">
<title>11</title>
<g id="a_node7"><a xlink:href="https://clarinet.corp.google.com/projects/101328230/pipelines/100326480-100326481?cloudProject=corp-data-store-uat" xlink:title="HRtoBQ_Versioned">
<polygon fill="#006400" stroke="#006400" points="782.2066,-656.8 638.2066,-656.8 638.2066,-620.8 782.2066,-620.8 782.2066,-656.8"/>
<text text-anchor="middle" x="710.2066" y="-634.6" font-family="Roboto" font-size="14.00" fill="#ffffff">HRtoBQ_Versioned</text>
</a>
</g>
</g>
<!-- 22 -->
<g id="node13" class="node">
<title>22</title>
<polygon fill="#b03060" stroke="#b03060" points="996.0587,-503.8 852.0587,-503.8 852.0587,-467.8 996.0587,-467.8 996.0587,-503.8"/>
<text text-anchor="middle" x="924.0587" y="-481.6" font-family="Roboto" font-size="14.00" fill="#ffffff">HCM DQ Versioned</text>
</g>
<!-- 11&#45;&gt;22 -->
<g id="edge12" class="edge">
<title>11&#45;&gt;22</title>
<path fill="none" stroke="#ff0000" stroke-dasharray="5,2" d="M752.2899,-620.776C763.2,-615.4988 774.7292,-609.3658 784.8802,-602.8 827.3383,-575.3375 871.1557,-536.4331 898.0072,-511.1586"/>
<polygon fill="#ff0000" stroke="#ff0000" points="900.6032,-513.52 905.4453,-504.0964 895.7834,-508.4436 900.6032,-513.52"/>
</g>
<!-- 12 -->
<g id="node8" class="node">
<title>12</title>
<polygon fill="#006400" stroke="#006400" points="782.2066,-584.4019 638.2066,-584.4019 638.2066,-543.1981 782.2066,-543.1981 782.2066,-584.4019"/>
<text text-anchor="middle" x="710.2066" y="-568" font-family="Roboto" font-size="14.00" fill="#ffffff">Version Team </text>
<text text-anchor="middle" x="710.2066" y="-551.2" font-family="Roboto" font-size="14.00" fill="#ffffff">Graph Tables</text>
</g>
<!-- 12&#45;&gt;22 -->
<g id="edge13" class="edge">
<title>12&#45;&gt;22</title>
<path fill="none" stroke="#ff0000" stroke-dasharray="5,2" d="M766.9536,-543.1022C797.2123,-532.0657 834.4045,-518.5003 865.005,-507.3391"/>
<polygon fill="#ff0000" stroke="#ff0000" points="866.4962,-510.5209 874.6914,-503.8061 864.0975,-503.9446 866.4962,-510.5209"/>
</g>
<!-- 13 -->
<g id="node9" class="node">
<title>13</title>
<polygon fill="#006400" stroke="#006400" points="782.2066,-506.4019 638.2066,-506.4019 638.2066,-465.1981 782.2066,-465.1981 782.2066,-506.4019"/>
<text text-anchor="middle" x="710.2066" y="-490" font-family="Roboto" font-size="14.00" fill="#ffffff">PezCloudSQLtoBQ &#45; </text>
<text text-anchor="middle" x="710.2066" y="-473.2" font-family="Roboto" font-size="14.00" fill="#ffffff">Versioning</text>
</g>
<!-- 13&#45;&gt;22 -->
<g id="edge14" class="edge">
<title>13&#45;&gt;22</title>
<path fill="none" stroke="#ff0000" stroke-dasharray="5,2" d="M782.309,-485.8C801.4117,-485.8 822.1791,-485.8 841.7781,-485.8"/>
<polygon fill="#ff0000" stroke="#ff0000" points="841.9057,-489.3001 851.9056,-485.8 841.9056,-482.3001 841.9057,-489.3001"/>
</g>
<!-- 1.2 -->
<g id="node10" class="node">
<title>1.2</title>
<polygon fill="#006400" stroke="#006400" points="782.2066,-428.4019 638.2066,-428.4019 638.2066,-387.1981 782.2066,-387.1981 782.2066,-428.4019"/>
<text text-anchor="middle" x="710.2066" y="-412" font-family="Roboto" font-size="14.00" fill="#ffffff">PezCloudSQLtoBQ &#45; </text>
<text text-anchor="middle" x="710.2066" y="-395.2" font-family="Roboto" font-size="14.00" fill="#ffffff">headcount_slot_total</text>
</g>
<!-- 1.2&#45;&gt;22 -->
<g id="edge15" class="edge">
<title>1.2&#45;&gt;22</title>
<path fill="none" stroke="#ff0000" stroke-dasharray="5,2" d="M766.9536,-428.4978C797.2123,-439.5343 834.4045,-453.0997 865.005,-464.2609"/>
<polygon fill="#ff0000" stroke="#ff0000" points="864.0975,-467.6554 874.6914,-467.7939 866.4962,-461.0791 864.0975,-467.6554"/>
</g>
<!-- 1.22 -->
<g id="node11" class="node">
<title>1.22</title>
<polygon fill="#006400" stroke="#006400" points="785.0542,-350.4019 635.359,-350.4019 635.359,-309.1981 785.0542,-309.1981 785.0542,-350.4019"/>
<text text-anchor="middle" x="710.2066" y="-334" font-family="Roboto" font-size="14.00" fill="#ffffff">Version SRT</text>
<text text-anchor="middle" x="710.2066" y="-317.2" font-family="Roboto" font-size="14.00" fill="#ffffff"> Source Landing Tables</text>
</g>
<!-- 1.22&#45;&gt;22 -->
<g id="edge16" class="edge">
<title>1.22&#45;&gt;22</title>
<path fill="none" stroke="#ff0000" stroke-dasharray="5,2" d="M758.7336,-350.5902C767.9729,-355.7685 777.1563,-361.8592 784.8802,-368.8 817.0622,-397.7192 805.5477,-422.2147 838.8802,-449.8 844.9677,-454.8379 851.863,-459.2693 859.0305,-463.1413"/>
<polygon fill="#ff0000" stroke="#ff0000" points="857.7069,-466.393 868.2144,-467.7501 860.8465,-460.1366 857.7069,-466.393"/>
</g>
<!-- 21&#45;&gt;11 -->
<g id="edge1" class="edge">
<title>21&#45;&gt;11</title>
<path fill="none" stroke="#ff0000" stroke-dasharray="5,2" d="M525.6556,-503.8407C548.363,-528.4881 591.8888,-573.0182 635.533,-602.8 642.5395,-607.5811 650.2778,-612.0689 658.0396,-616.1449"/>
<polygon fill="#ff0000" stroke="#ff0000" points="656.616,-619.347 667.1197,-620.7337 659.7733,-613.0995 656.616,-619.347"/>
</g>
<!-- 21&#45;&gt;12 -->
<g id="edge2" class="edge">
<title>21&#45;&gt;12</title>
<path fill="none" stroke="#ff0000" stroke-dasharray="5,2" d="M556.0759,-503.8908C583.3443,-514.4898 618.1384,-528.0139 647.7652,-539.5296"/>
<polygon fill="#ff0000" stroke="#ff0000" points="646.5979,-542.8309 657.1866,-543.1916 649.134,-536.3065 646.5979,-542.8309"/>
</g>
<!-- 21&#45;&gt;13 -->
<g id="edge3" class="edge">
<title>21&#45;&gt;13</title>
<path fill="none" stroke="#ff0000" stroke-dasharray="5,2" d="M581.6973,-485.8C596.5787,-485.8 612.3598,-485.8 627.5795,-485.8"/>
<polygon fill="#ff0000" stroke="#ff0000" points="628.0086,-489.3001 638.0086,-485.8 628.0085,-482.3001 628.0086,-489.3001"/>
</g>
<!-- 21&#45;&gt;1.2 -->
<g id="edge4" class="edge">
<title>21&#45;&gt;1.2</title>
<path fill="none" stroke="#ff0000" stroke-dasharray="5,2" d="M556.0759,-467.7092C583.3443,-457.1102 618.1384,-443.5861 647.7652,-432.0704"/>
<polygon fill="#ff0000" stroke="#ff0000" points="649.134,-435.2935 657.1866,-428.4084 646.5979,-428.7691 649.134,-435.2935"/>
</g>
<!-- 21&#45;&gt;1.22 -->
<g id="edge5" class="edge">
<title>21&#45;&gt;1.22</title>
<path fill="none" stroke="#ff0000" stroke-dasharray="5,2" d="M526.1833,-467.5424C549.1552,-443.042 592.616,-399.1059 635.533,-368.8 642.0853,-364.1731 649.2574,-359.7387 656.483,-355.6267"/>
<polygon fill="#ff0000" stroke="#ff0000" points="658.5461,-358.4865 665.6214,-350.6004 655.1725,-352.353 658.5461,-358.4865"/>
</g>
<!-- 31 -->
<g id="node15" class="node">
<title>31</title>
<polygon fill="#3499eb" stroke="#3499eb" points="996.0587,-431.4019 852.0587,-431.4019 852.0587,-390.1981 996.0587,-390.1981 996.0587,-431.4019"/>
<text text-anchor="middle" x="924.0587" y="-415" font-family="Roboto" font-size="14.00" fill="#ffffff">Dimension </text>
<text text-anchor="middle" x="924.0587" y="-398.2" font-family="Roboto" font-size="14.00" fill="#ffffff">PreProcessed</text>
</g>
<!-- 22&#45;&gt;31 -->
<g id="edge22" class="edge">
<title>22&#45;&gt;31</title>
<path fill="none" stroke="#ff0000" stroke-dasharray="5,2" d="M924.0587,-467.5924C924.0587,-458.9694 924.0587,-450.3464 924.0587,-441.7234"/>
<polygon fill="#ff0000" stroke="#ff0000" points="927.5588,-441.6007 924.0587,-431.6008 920.5588,-441.6008 927.5588,-441.6007"/>
</g>
<!-- 41 -->
<g id="node21" class="node">
<title>41</title>
<polygon fill="#7d34eb" stroke="#7d34eb" points="1207.2372,-195.4019 1063.2372,-195.4019 1063.2372,-154.1981 1207.2372,-154.1981 1207.2372,-195.4019"/>
<text text-anchor="middle" x="1135.2372" y="-179" font-family="Roboto" font-size="14.00" fill="#ffffff">Dimension HCM </text>
<text text-anchor="middle" x="1135.2372" y="-162.2" font-family="Roboto" font-size="14.00" fill="#ffffff">PreProcessed</text>
</g>
<!-- 22&#45;&gt;41 -->
<g id="edge30" class="edge">
<title>22&#45;&gt;41</title>
<path fill="none" stroke="#ff0000" stroke-dasharray="5,2" d="M983.0472,-467.7219C992.5725,-462.9665 1001.7493,-457.0683 1009.2372,-449.8 1081.1018,-380.0433 1115.8194,-261.6038 1128.8538,-205.727"/>
<polygon fill="#ff0000" stroke="#ff0000" points="1132.3219,-206.2578 1131.1079,-195.7327 1125.4934,-204.7176 1132.3219,-206.2578"/>
</g>
<!-- 23 -->
<g id="node14" class="node">
<title>23</title>
<polygon fill="#b03060" stroke="#b03060" points="2420.3306,-155.8 2276.3306,-155.8 2276.3306,-119.8 2420.3306,-119.8 2420.3306,-155.8"/>
<text text-anchor="middle" x="2348.3306" y="-133.6" font-family="Roboto" font-size="14.00" fill="#ffffff">HCM DQ Processed</text>
</g>
<!-- 32 -->
<g id="node16" class="node">
<title>32</title>
<polygon fill="#3499eb" stroke="#3499eb" points="996.0587,-353.4019 852.0587,-353.4019 852.0587,-312.1981 996.0587,-312.1981 996.0587,-353.4019"/>
<text text-anchor="middle" x="924.0587" y="-337" font-family="Roboto" font-size="14.00" fill="#ffffff">Dimension </text>
<text text-anchor="middle" x="924.0587" y="-320.2" font-family="Roboto" font-size="14.00" fill="#ffffff">Version Tables</text>
</g>
<!-- 31&#45;&gt;32 -->
<g id="edge17" class="edge">
<title>31&#45;&gt;32</title>
<path fill="none" stroke="#ff0000" stroke-dasharray="5,2" d="M924.0587,-389.767C924.0587,-381.0826 924.0587,-372.3981 924.0587,-363.7136"/>
<polygon fill="#ff0000" stroke="#ff0000" points="927.5588,-363.5187 924.0587,-353.5188 920.5588,-363.5188 927.5588,-363.5187"/>
</g>
<!-- 33.1 -->
<g id="node19" class="node">
<title>33.1</title>
<polygon fill="#3499eb" stroke="#3499eb" points="1008.7678,-275.4019 839.3496,-275.4019 839.3496,-234.1981 1008.7678,-234.1981 1008.7678,-275.4019"/>
<text text-anchor="middle" x="924.0587" y="-259" font-family="Roboto" font-size="14.00" fill="#ffffff">Dimension PreProcessed</text>
<text text-anchor="middle" x="924.0587" y="-242.2" font-family="Roboto" font-size="14.00" fill="#ffffff"> Person History Job Family</text>
</g>
<!-- 32&#45;&gt;33.1 -->
<g id="edge18" class="edge">
<title>32&#45;&gt;33.1</title>
<path fill="none" stroke="#ff0000" stroke-dasharray="5,2" d="M924.0587,-311.767C924.0587,-303.0826 924.0587,-294.3981 924.0587,-285.7136"/>
<polygon fill="#ff0000" stroke="#ff0000" points="927.5588,-285.5187 924.0587,-275.5188 920.5588,-285.5188 927.5588,-285.5187"/>
</g>
<!-- 33 -->
<g id="node17" class="node">
<title>33</title>
<polygon fill="#3499eb" stroke="#3499eb" points="1001.6309,-119.4019 846.4865,-119.4019 846.4865,-78.1981 1001.6309,-78.1981 1001.6309,-119.4019"/>
<text text-anchor="middle" x="924.0587" y="-103" font-family="Roboto" font-size="14.00" fill="#ffffff">Dimension PreProcessed</text>
<text text-anchor="middle" x="924.0587" y="-86.2" font-family="Roboto" font-size="14.00" fill="#ffffff"> Person History</text>
</g>
<!-- 34 -->
<g id="node18" class="node">
<title>34</title>
<polygon fill="#3499eb" stroke="#3499eb" points="996.0587,-41.4019 852.0587,-41.4019 852.0587,-.1981 996.0587,-.1981 996.0587,-41.4019"/>
<text text-anchor="middle" x="924.0587" y="-25" font-family="Roboto" font-size="14.00" fill="#ffffff">Dimension Version </text>
<text text-anchor="middle" x="924.0587" y="-8.2" font-family="Roboto" font-size="14.00" fill="#ffffff">Person History Table</text>
</g>
<!-- 33&#45;&gt;34 -->
<g id="edge21" class="edge">
<title>33&#45;&gt;34</title>
<path fill="none" stroke="#ff0000" stroke-dasharray="5,2" d="M924.0587,-77.767C924.0587,-69.0826 924.0587,-60.3981 924.0587,-51.7136"/>
<polygon fill="#ff0000" stroke="#ff0000" points="927.5588,-51.5187 924.0587,-41.5188 920.5588,-51.5188 927.5588,-51.5187"/>
</g>
<!-- 43 -->
<g id="node24" class="node">
<title>43</title>
<polygon fill="#7d34eb" stroke="#7d34eb" points="1605.5237,-119.4019 1461.5237,-119.4019 1461.5237,-78.1981 1605.5237,-78.1981 1605.5237,-119.4019"/>
<text text-anchor="middle" x="1533.5237" y="-103" font-family="Roboto" font-size="14.00" fill="#ffffff">HC Allocation </text>
<text text-anchor="middle" x="1533.5237" y="-86.2" font-family="Roboto" font-size="14.00" fill="#ffffff">History PreProcessed</text>
</g>
<!-- 34&#45;&gt;43 -->
<g id="edge23" class="edge">
<title>34&#45;&gt;43</title>
<path fill="none" stroke="#ff0000" stroke-dasharray="5,2" d="M996.069,-36.6082C1017.6002,-40.977 1041.3114,-45.4363 1063.2372,-48.8 1198.5081,-69.5522 1356.9919,-84.477 1451.1194,-92.3656"/>
<polygon fill="#ff0000" stroke="#ff0000" points="1450.8923,-95.8587 1461.1481,-93.1999 1451.4727,-88.8828 1450.8923,-95.8587"/>
</g>
<!-- 44 -->
<g id="node25" class="node">
<title>44</title>
<polygon fill="#7d34eb" stroke="#7d34eb" points="1605.5237,-41.4019 1461.5237,-41.4019 1461.5237,-.1981 1605.5237,-.1981 1605.5237,-41.4019"/>
<text text-anchor="middle" x="1533.5237" y="-25" font-family="Roboto" font-size="14.00" fill="#ffffff">Team Allocation </text>
<text text-anchor="middle" x="1533.5237" y="-8.2" font-family="Roboto" font-size="14.00" fill="#ffffff">History PreProcessed</text>
</g>
<!-- 34&#45;&gt;44 -->
<g id="edge36" class="edge">
<title>34&#45;&gt;44</title>
<path fill="none" stroke="#ff0000" stroke-dasharray="5,2" d="M996.0647,-20.8C1109.9222,-20.8 1330.8944,-20.8 1450.9899,-20.8"/>
<polygon fill="#ff0000" stroke="#ff0000" points="1451.2285,-24.3001 1461.2285,-20.8 1451.2285,-17.3001 1451.2285,-24.3001"/>
</g>
<!-- 33.2 -->
<g id="node20" class="node">
<title>33.2</title>
<polygon fill="#3499eb" stroke="#3499eb" points="1009.4161,-197.4019 838.7013,-197.4019 838.7013,-156.1981 1009.4161,-156.1981 1009.4161,-197.4019"/>
<text text-anchor="middle" x="924.0587" y="-181" font-family="Roboto" font-size="14.00" fill="#ffffff">Dimension Version Person </text>
<text text-anchor="middle" x="924.0587" y="-164.2" font-family="Roboto" font-size="14.00" fill="#ffffff">History Job Family Tables</text>
</g>
<!-- 33.1&#45;&gt;33.2 -->
<g id="edge19" class="edge">
<title>33.1&#45;&gt;33.2</title>
<path fill="none" stroke="#ff0000" stroke-dasharray="5,2" d="M924.0587,-233.767C924.0587,-225.0826 924.0587,-216.3981 924.0587,-207.7136"/>
<polygon fill="#ff0000" stroke="#ff0000" points="927.5588,-207.5187 924.0587,-197.5188 920.5588,-207.5188 927.5588,-207.5187"/>
</g>
<!-- 33.2&#45;&gt;33 -->
<g id="edge20" class="edge">
<title>33.2&#45;&gt;33</title>
<path fill="none" stroke="#ff0000" stroke-dasharray="5,2" d="M924.0587,-155.767C924.0587,-147.0826 924.0587,-138.3981 924.0587,-129.7136"/>
<polygon fill="#ff0000" stroke="#ff0000" points="927.5588,-129.5187 924.0587,-119.5188 920.5588,-129.5188 927.5588,-129.5187"/>
</g>
<!-- 42 -->
<g id="node22" class="node">
<title>42</title>
<polygon fill="#7d34eb" stroke="#7d34eb" points="1405.2372,-194.4019 1261.2372,-194.4019 1261.2372,-153.1981 1405.2372,-153.1981 1405.2372,-194.4019"/>
<text text-anchor="middle" x="1333.2372" y="-178" font-family="Roboto" font-size="14.00" fill="#ffffff">Dimension HCM </text>
<text text-anchor="middle" x="1333.2372" y="-161.2" font-family="Roboto" font-size="14.00" fill="#ffffff">Version Tables</text>
</g>
<!-- 41&#45;&gt;42 -->
<g id="edge31" class="edge">
<title>41&#45;&gt;42</title>
<path fill="none" stroke="#ff0000" stroke-dasharray="5,2" d="M1207.2799,-174.4361C1221.3381,-174.3651 1236.1814,-174.2902 1250.553,-174.2176"/>
<polygon fill="#ff0000" stroke="#ff0000" points="1250.9342,-177.7158 1260.9164,-174.1653 1250.8988,-170.7159 1250.9342,-177.7158"/>
</g>
<!-- 42.1 -->
<g id="node23" class="node">
<title>42.1</title>
<polygon fill="#7d34eb" stroke="#7d34eb" points="1607.5973,-197.4019 1459.4501,-197.4019 1459.4501,-156.1981 1607.5973,-156.1981 1607.5973,-197.4019"/>
<text text-anchor="middle" x="1533.5237" y="-181" font-family="Roboto" font-size="14.00" fill="#ffffff">Staffing Request </text>
<text text-anchor="middle" x="1533.5237" y="-164.2" font-family="Roboto" font-size="14.00" fill="#ffffff">Summary PreProcessed</text>
</g>
<!-- 42&#45;&gt;42.1 -->
<g id="edge32" class="edge">
<title>42&#45;&gt;42.1</title>
<path fill="none" stroke="#ff0000" stroke-dasharray="5,2" d="M1405.2623,-174.8788C1419.5682,-175.0931 1434.7073,-175.3199 1449.3763,-175.5396"/>
<polygon fill="#ff0000" stroke="#ff0000" points="1449.3894,-179.0401 1459.4407,-175.6903 1449.4943,-172.0409 1449.3894,-179.0401"/>
</g>
<!-- 42&#45;&gt;43 -->
<g id="edge35" class="edge">
<title>42&#45;&gt;43</title>
<path fill="none" stroke="#ff0000" stroke-dasharray="5,2" d="M1388.4966,-153.1074C1413.4526,-143.7623 1443.0974,-132.6613 1469.0612,-122.9389"/>
<polygon fill="#ff0000" stroke="#ff0000" points="1470.3072,-126.2097 1478.4447,-119.4251 1467.8523,-119.6542 1470.3072,-126.2097"/>
</g>
<!-- 42&#45;&gt;44 -->
<g id="edge37" class="edge">
<title>42&#45;&gt;44</title>
<path fill="none" stroke="#ff0000" stroke-dasharray="5,2" d="M1352.8391,-153.1377C1376.5407,-128.8782 1418.3583,-88.3371 1459.2372,-59.8 1465.8716,-55.1686 1473.1244,-50.7109 1480.4149,-46.5696"/>
<polygon fill="#ff0000" stroke="#ff0000" points="1482.5502,-49.3896 1489.6259,-41.5038 1479.1769,-43.256 1482.5502,-49.3896"/>
</g>
<!-- 45.1 -->
<g id="node27" class="node">
<title>45.1</title>
<polygon fill="#7d34eb" stroke="#7d34eb" points="1805.8102,-197.4019 1661.8102,-197.4019 1661.8102,-156.1981 1805.8102,-156.1981 1805.8102,-197.4019"/>
<text text-anchor="middle" x="1733.8102" y="-181" font-family="Roboto" font-size="14.00" fill="#ffffff">Version Staffing </text>
<text text-anchor="middle" x="1733.8102" y="-164.2" font-family="Roboto" font-size="14.00" fill="#ffffff">Request Summary</text>
</g>
<!-- 42.1&#45;&gt;45.1 -->
<g id="edge33" class="edge">
<title>42.1&#45;&gt;45.1</title>
<path fill="none" stroke="#ff0000" stroke-dasharray="5,2" d="M1607.8184,-176.8C1621.9726,-176.8 1636.8663,-176.8 1651.2595,-176.8"/>
<polygon fill="#ff0000" stroke="#ff0000" points="1651.6338,-180.3001 1661.6337,-176.8 1651.6337,-173.3001 1651.6338,-180.3001"/>
</g>
<!-- 46 -->
<g id="node28" class="node">
<title>46</title>
<polygon fill="#7d34eb" stroke="#7d34eb" points="1805.8102,-119.4019 1661.8102,-119.4019 1661.8102,-78.1981 1805.8102,-78.1981 1805.8102,-119.4019"/>
<text text-anchor="middle" x="1733.8102" y="-103" font-family="Roboto" font-size="14.00" fill="#ffffff">HC Allocation </text>
<text text-anchor="middle" x="1733.8102" y="-86.2" font-family="Roboto" font-size="14.00" fill="#ffffff">History Versioned</text>
</g>
<!-- 43&#45;&gt;46 -->
<g id="edge38" class="edge">
<title>43&#45;&gt;46</title>
<path fill="none" stroke="#ff0000" stroke-dasharray="5,2" d="M1605.5488,-98.8C1620.4015,-98.8 1636.1522,-98.8 1651.3425,-98.8"/>
<polygon fill="#ff0000" stroke="#ff0000" points="1651.7515,-102.3001 1661.7514,-98.8 1651.7514,-95.3001 1651.7515,-102.3001"/>
</g>
<!-- 45 -->
<g id="node26" class="node">
<title>45</title>
<polygon fill="#7d34eb" stroke="#7d34eb" points="1805.8102,-41.4019 1661.8102,-41.4019 1661.8102,-.1981 1805.8102,-.1981 1805.8102,-41.4019"/>
<text text-anchor="middle" x="1733.8102" y="-25" font-family="Roboto" font-size="14.00" fill="#ffffff">Team Allocation </text>
<text text-anchor="middle" x="1733.8102" y="-8.2" font-family="Roboto" font-size="14.00" fill="#ffffff">History Versioned</text>
</g>
<!-- 44&#45;&gt;45 -->
<g id="edge29" class="edge">
<title>44&#45;&gt;45</title>
<path fill="none" stroke="#ff0000" stroke-dasharray="5,2" d="M1605.5488,-20.8C1620.4015,-20.8 1636.1522,-20.8 1651.3425,-20.8"/>
<polygon fill="#ff0000" stroke="#ff0000" points="1651.7515,-24.3001 1661.7514,-20.8 1651.7514,-17.3001 1651.7515,-24.3001"/>
</g>
<!-- 47 -->
<g id="node29" class="node">
<title>47</title>
<polygon fill="#7d34eb" stroke="#7d34eb" points="2024.0915,-119.4019 1860.0493,-119.4019 1860.0493,-78.1981 2024.0915,-78.1981 2024.0915,-119.4019"/>
<text text-anchor="middle" x="1942.0704" y="-103" font-family="Roboto" font-size="14.00" fill="#ffffff">Populate HC and </text>
<text text-anchor="middle" x="1942.0704" y="-86.2" font-family="Roboto" font-size="14.00" fill="#ffffff">Team consumption Tables</text>
</g>
<!-- 45&#45;&gt;47 -->
<g id="edge28" class="edge">
<title>45&#45;&gt;47</title>
<path fill="none" stroke="#ff0000" stroke-dasharray="5,2" d="M1789.0733,-41.4978C1816.248,-51.6755 1849.1649,-64.004 1877.4942,-74.6142"/>
<polygon fill="#ff0000" stroke="#ff0000" points="1876.3183,-77.9112 1886.9107,-78.1409 1878.7735,-71.3558 1876.3183,-77.9112"/>
</g>
<!-- 47.1 -->
<g id="node30" class="node">
<title>47.1</title>
<polygon fill="#7d34eb" stroke="#7d34eb" points="2014.0704,-197.4019 1870.0704,-197.4019 1870.0704,-156.1981 2014.0704,-156.1981 2014.0704,-197.4019"/>
<text text-anchor="middle" x="1942.0704" y="-181" font-family="Roboto" font-size="14.00" fill="#ffffff">Populate SRT </text>
<text text-anchor="middle" x="1942.0704" y="-164.2" font-family="Roboto" font-size="14.00" fill="#ffffff">consumption Tables</text>
</g>
<!-- 45.1&#45;&gt;47.1 -->
<g id="edge34" class="edge">
<title>45.1&#45;&gt;47.1</title>
<path fill="none" stroke="#ff0000" stroke-dasharray="5,2" d="M1806.065,-176.8C1823.3495,-176.8 1841.9307,-176.8 1859.6362,-176.8"/>
<polygon fill="#ff0000" stroke="#ff0000" points="1859.9433,-180.3001 1869.9433,-176.8 1859.9433,-173.3001 1859.9433,-180.3001"/>
</g>
<!-- 46&#45;&gt;47 -->
<g id="edge39" class="edge">
<title>46&#45;&gt;47</title>
<path fill="none" stroke="#ff0000" stroke-dasharray="5,2" d="M1806.065,-98.8C1820.1922,-98.8 1835.1856,-98.8 1849.8591,-98.8"/>
<polygon fill="#ff0000" stroke="#ff0000" points="1849.952,-102.3001 1859.952,-98.8 1849.952,-95.3001 1849.952,-102.3001"/>
</g>
<!-- 50 -->
<g id="node31" class="node">
<title>50</title>
<polygon fill="#3770ed" stroke="#3770ed" points="2222.3306,-119.4019 2078.3306,-119.4019 2078.3306,-78.1981 2222.3306,-78.1981 2222.3306,-119.4019"/>
<text text-anchor="middle" x="2150.3306" y="-103" font-family="Roboto" font-size="14.00" fill="#ffffff">BQ to PLX HCM </text>
<text text-anchor="middle" x="2150.3306" y="-86.2" font-family="Roboto" font-size="14.00" fill="#ffffff">Consumption Tables</text>
</g>
<!-- 47&#45;&gt;50 -->
<g id="edge24" class="edge">
<title>47&#45;&gt;50</title>
<path fill="none" stroke="#ff0000" stroke-dasharray="5,2" d="M2024.3803,-98.8C2038.6527,-98.8 2053.4977,-98.8 2067.7766,-98.8"/>
<polygon fill="#ff0000" stroke="#ff0000" points="2068.0575,-102.3001 2078.0575,-98.8 2068.0575,-95.3001 2068.0575,-102.3001"/>
</g>
<!-- 50.1 -->
<g id="node32" class="node">
<title>50.1</title>
<polygon fill="#3770ed" stroke="#3770ed" points="2222.3306,-197.4019 2078.3306,-197.4019 2078.3306,-156.1981 2222.3306,-156.1981 2222.3306,-197.4019"/>
<text text-anchor="middle" x="2150.3306" y="-181" font-family="Roboto" font-size="14.00" fill="#ffffff">BQ to PLX SRT </text>
<text text-anchor="middle" x="2150.3306" y="-164.2" font-family="Roboto" font-size="14.00" fill="#ffffff">Consumption Tables</text>
</g>
<!-- 47.1&#45;&gt;50.1 -->
<g id="edge25" class="edge">
<title>47.1&#45;&gt;50.1</title>
<path fill="none" stroke="#ff0000" stroke-dasharray="5,2" d="M2014.3252,-176.8C2031.6097,-176.8 2050.1909,-176.8 2067.8964,-176.8"/>
<polygon fill="#ff0000" stroke="#ff0000" points="2068.2035,-180.3001 2078.2035,-176.8 2068.2035,-173.3001 2068.2035,-180.3001"/>
</g>
<!-- 50&#45;&gt;23 -->
<g id="edge26" class="edge">
<title>50&#45;&gt;23</title>
<path fill="none" stroke="#ff0000" stroke-dasharray="5,2" d="M2222.3733,-112.9902C2236.568,-115.7862 2251.5631,-118.7397 2266.0648,-121.5961"/>
<polygon fill="#ff0000" stroke="#ff0000" points="2265.5219,-125.0564 2276.0098,-123.555 2266.8747,-118.1883 2265.5219,-125.0564"/>
</g>
<!-- 50.1&#45;&gt;23 -->
<g id="edge27" class="edge">
<title>50.1&#45;&gt;23</title>
<path fill="none" stroke="#ff0000" stroke-dasharray="5,2" d="M2222.3733,-162.6098C2236.568,-159.8138 2251.5631,-156.8603 2266.0648,-154.0039"/>
<polygon fill="#ff0000" stroke="#ff0000" points="2266.8747,-157.4117 2276.0098,-152.045 2265.5219,-150.5436 2266.8747,-157.4117"/>
</g>
</g>
</svg>
